{
    "asset" : {
        "generator" : "Khronos glTF Blender I/O v1.2.75",
        "version" : "2.0"
    },
    "scene" : 0,
    "scenes" : [
        {
            "name" : "Scene",
            "nodes" : [
                0,
                1,
                2,
                3
            ]
        }
    ],
    "nodes" : [
        {
            "mesh" : 0,
            "name" : "added"
        },
        {
            "mesh" : 1,
            "name" : "deleted"
        },
        {
            "mesh" : 2,
            "name" : "renamed"
        },
        {
            "mesh" : 2,
            "name" : "modified"
        }
    ],
    "meshes" : [
        {
            "name" : "Cube.001",
            "primitives" : [
                {
                    "attributes" : {
                        "POSITION" : 0,
                        "NORMAL" : 1,
                        "TEXCOORD_0" : 2
                    },
                    "indices" : 3
                }
            ]
        },
        {
            "name" : "Cube.002",
            "primitives" : [
                {
                    "attributes" : {
                        "POSITION" : 4,
                        "NORMAL" : 5,
                        "TEXCOORD_0" : 6
                    },
                    "indices" : 7
                }
            ]
        },
        {
            "name" : "pen symbol",
            "primitives" : [
                {
                    "attributes" : {
                        "POSITION" : 8,
                        "NORMAL" : 9,
                        "TEXCOORD_0" : 10
                    },
                    "indices" : 11
                }
            ]
        }
    ],
    "accessors" : [
        {
            "bufferView" : 0,
            "componentType" : 5126,
            "count" : 84,
            "max" : [
                0.75,
                0.25,
                0.75
            ],
            "min" : [
                -0.75,
                0,
                -0.75
            ],
            "type" : "VEC3"
        },
        {
            "bufferView" : 1,
            "componentType" : 5126,
            "count" : 84,
            "type" : "VEC3"
        },
        {
            "bufferView" : 2,
            "componentType" : 5126,
            "count" : 84,
            "type" : "VEC2"
        },
        {
            "bufferView" : 3,
            "componentType" : 5123,
            "count" : 132,
            "type" : "SCALAR"
        },
        {
            "bufferView" : 4,
            "componentType" : 5126,
            "count" : 86,
            "max" : [
                0.7071067690849304,
                0.25,
                0.7071067690849304
            ],
            "min" : [
                -0.7071067690849304,
                0,
                -0.7071067690849304
            ],
            "type" : "VEC3"
        },
        {
            "bufferView" : 5,
            "componentType" : 5126,
            "count" : 86,
            "type" : "VEC3"
        },
        {
            "bufferView" : 6,
            "componentType" : 5126,
            "count" : 86,
            "type" : "VEC2"
        },
        {
            "bufferView" : 7,
            "componentType" : 5123,
            "count" : 132,
            "type" : "SCALAR"
        },
        {
            "bufferView" : 8,
            "componentType" : 5126,
            "count" : 55,
            "max" : [
                0.7071067690849304,
                0.25,
                0.7424620985984802
            ],
            "min" : [
                -0.7424620985984802,
                0,
                -0.7071067690849304
            ],
            "type" : "VEC3"
        },
        {
            "bufferView" : 9,
            "componentType" : 5126,
            "count" : 55,
            "type" : "VEC3"
        },
        {
            "bufferView" : 10,
            "componentType" : 5126,
            "count" : 55,
            "type" : "VEC2"
        },
        {
            "bufferView" : 11,
            "componentType" : 5123,
            "count" : 87,
            "type" : "SCALAR"
        }
    ],
    "bufferViews" : [
        {
            "buffer" : 0,
            "byteLength" : 1008,
            "byteOffset" : 0
        },
        {
            "buffer" : 0,
            "byteLength" : 1008,
            "byteOffset" : 1008
        },
        {
            "buffer" : 0,
            "byteLength" : 672,
            "byteOffset" : 2016
        },
        {
            "buffer" : 0,
            "byteLength" : 264,
            "byteOffset" : 2688
        },
        {
            "buffer" : 0,
            "byteLength" : 1032,
            "byteOffset" : 2952
        },
        {
            "buffer" : 0,
            "byteLength" : 1032,
            "byteOffset" : 3984
        },
        {
            "buffer" : 0,
            "byteLength" : 688,
            "byteOffset" : 5016
        },
        {
            "buffer" : 0,
            "byteLength" : 264,
            "byteOffset" : 5704
        },
        {
            "buffer" : 0,
            "byteLength" : 660,
            "byteOffset" : 5968
        },
        {
            "buffer" : 0,
            "byteLength" : 660,
            "byteOffset" : 6628
        },
        {
            "buffer" : 0,
            "byteLength" : 440,
            "byteOffset" : 7288
        },
        {
            "buffer" : 0,
            "byteLength" : 174,
            "byteOffset" : 7728
        }
    ],
    "buffers" : [
        {
            "byteLength" : 7904,
            "uri" : "data:application/octet-stream;base64,"
        }
    ]
}
